<svg width="136" height="24" viewBox="0 0 136 24" fill="none" xmlns="http://www.w3.org/2000/svg">
<path d="M12 22L10 19L11.5 17L3 9.00293L3.00977 5L11.9922 13.0146L21 5.02344L20.9902 9.02539L12.5 17L14 19L12 22ZM17 5.95703L12 10.25L7 5.95703V2.25L12 6.25L17 2.25V5.95703Z" fill="url(#paint0_linear_2478_100)"/>
<path d="M29.424 18H27.312V6.832H32.352C32.864 6.832 33.3227 6.912 33.728 7.072C34.1333 7.232 34.4747 7.46667 34.752 7.776C35.04 8.07467 35.2587 8.43733 35.408 8.864C35.568 9.29067 35.648 9.76533 35.648 10.288C35.648 11.056 35.472 11.7173 35.12 12.272C34.7787 12.8267 34.2613 13.2213 33.568 13.456L35.856 18H33.504L31.424 13.696H29.424V18ZM32.144 11.92C32.5493 11.92 32.8693 11.8133 33.104 11.6C33.3387 11.376 33.456 11.0613 33.456 10.656V9.92C33.456 9.51467 33.3387 9.20533 33.104 8.992C32.8693 8.77867 32.5493 8.672 32.144 8.672H29.424V11.92H32.144ZM38.257 18V6.832H45.617V8.704H40.369V11.408H45.009V13.28H40.369V16.128H45.617V18H38.257ZM48.1707 6.832H52.2347C52.9601 6.832 53.6161 6.94933 54.2027 7.184C54.8001 7.41867 55.3067 7.77067 55.7227 8.24C56.1494 8.69867 56.4747 9.28 56.6987 9.984C56.9334 10.6773 57.0507 11.488 57.0507 12.416C57.0507 13.344 56.9334 14.16 56.6987 14.864C56.4747 15.5573 56.1494 16.1387 55.7227 16.608C55.3067 17.0667 54.8001 17.4133 54.2027 17.648C53.6161 17.8827 52.9601 18 52.2347 18H48.1707V6.832ZM52.2347 16.128C53.0241 16.128 53.6481 15.8987 54.1067 15.44C54.5761 14.9707 54.8107 14.256 54.8107 13.296V11.536C54.8107 10.576 54.5761 9.86667 54.1067 9.408C53.6481 8.93867 53.0241 8.704 52.2347 8.704H50.2827V16.128H52.2347Z" fill="url(#paint1_linear_2478_100)"/>
<path d="M63.6232 18V6.832H68.6472C69.1592 6.832 69.6179 6.91733 70.0232 7.088C70.4392 7.248 70.7912 7.48267 71.0792 7.792C71.3672 8.09067 71.5859 8.45333 71.7352 8.88C71.8846 9.30667 71.9592 9.776 71.9592 10.288C71.9592 10.8107 71.8846 11.2853 71.7352 11.712C71.5859 12.128 71.3672 12.4907 71.0792 12.8C70.7912 13.0987 70.4392 13.3333 70.0232 13.504C69.6179 13.664 69.1592 13.744 68.6472 13.744H65.7352V18H63.6232ZM65.7352 11.92H68.4552C68.8606 11.92 69.1806 11.8133 69.4152 11.6C69.6499 11.376 69.7672 11.0613 69.7672 10.656V9.92C69.7672 9.51467 69.6499 9.20533 69.4152 8.992C69.1806 8.77867 68.8606 8.672 68.4552 8.672H65.7352V11.92ZM80.9612 13.28H76.3052V18H74.1932V6.832H76.3052V11.408H80.9612V6.832H83.0732V18H80.9612V13.28ZM90.3972 18.192C89.6612 18.192 88.9946 18.0693 88.3972 17.824C87.7999 17.5787 87.2879 17.2107 86.8612 16.72C86.4452 16.2293 86.1199 15.6267 85.8852 14.912C85.6506 14.1973 85.5332 13.3653 85.5332 12.416C85.5332 11.4773 85.6506 10.6507 85.8852 9.936C86.1199 9.21067 86.4452 8.60267 86.8612 8.112C87.2879 7.62133 87.7999 7.25333 88.3972 7.008C88.9946 6.76267 89.6612 6.64 90.3972 6.64C91.1332 6.64 91.7999 6.76267 92.3972 7.008C92.9946 7.25333 93.5066 7.62133 93.9332 8.112C94.3599 8.60267 94.6852 9.21067 94.9092 9.936C95.1439 10.6507 95.2612 11.4773 95.2612 12.416C95.2612 13.3653 95.1439 14.1973 94.9092 14.912C94.6852 15.6267 94.3599 16.2293 93.9332 16.72C93.5066 17.2107 92.9946 17.5787 92.3972 17.824C91.7999 18.0693 91.1332 18.192 90.3972 18.192ZM90.3972 16.32C91.1972 16.32 91.8319 16.0533 92.3012 15.52C92.7812 14.9867 93.0212 14.24 93.0212 13.28V11.552C93.0212 10.592 92.7812 9.84533 92.3012 9.312C91.8319 8.77867 91.1972 8.512 90.3972 8.512C89.5972 8.512 88.9572 8.77867 88.4772 9.312C88.0079 9.84533 87.7732 10.592 87.7732 11.552V13.28C87.7732 14.24 88.0079 14.9867 88.4772 15.52C88.9572 16.0533 89.5972 16.32 90.3972 16.32ZM97.7239 18V6.832H105.084V8.704H99.8359V11.408H104.476V13.28H99.8359V16.128H105.084V18H97.7239ZM110.838 12.272L109.686 9.952H109.638V18H107.638V6.832H109.958L113.318 12.56L114.47 14.88H114.518V6.832H116.518V18H114.198L110.838 12.272ZM118.994 18V16.304H120.466V8.528H118.994V6.832H124.066V8.528H122.578V16.304H124.066V18H118.994ZM135.423 18H132.959L130.399 13.712H130.351L127.823 18H125.519L129.135 12.272L125.679 6.832H128.143L130.511 10.8H130.559L132.959 6.832H135.263L131.775 12.272L135.423 18Z" fill="url(#paint2_linear_2478_100)"/>
<defs>
<linearGradient id="paint0_linear_2478_100" x1="4" y1="1.50001" x2="22.5" y2="25.5" gradientUnits="userSpaceOnUse">
<stop offset="0.103063" stop-color="#FF8C34"/>
<stop offset="0.352064" stop-color="#EB4F2E"/>
<stop offset="0.535638" stop-color="#EB393C"/>
<stop offset="0.700851" stop-color="#C71625"/>
</linearGradient>
<linearGradient id="paint1_linear_2478_100" x1="44.4217" y1="7.27711" x2="49.057" y2="40.5934" gradientUnits="userSpaceOnUse">
<stop stop-color="#B91C1C"/>
<stop offset="0.299427" stop-color="#EF4444"/>
<stop offset="0.507263" stop-color="#DC2626"/>
<stop offset="0.653778" stop-color="#F97316"/>
</linearGradient>
<linearGradient id="paint2_linear_2478_100" x1="28.1154" y1="15.2" x2="45.3821" y2="60.8296" gradientUnits="userSpaceOnUse">
<stop stop-color="#B91C1C"/>
<stop offset="0.16968" stop-color="#EF4444"/>
<stop offset="0.316562" stop-color="#DC2626"/>
<stop offset="0.677054" stop-color="#F97316"/>
</linearGradient>
</defs>
</svg>
