<svg width="848" height="130" viewBox="0 0 848 130" fill="none" xmlns="http://www.w3.org/2000/svg">
<path d="M65 119.167L54.167 102.917L62.292 92.084H67.709L75.834 102.917L65 119.167ZM64.9561 70.498L113.75 27.209L113.697 48.8896L67.708 92.083H62.292L16.25 48.7637L16.3037 27.083L64.9561 70.498ZM92.084 34.1631L65 57.417L37.917 34.1631V14.083L65 35.75L92.084 14.083V34.1631Z" fill="url(#paint0_linear_2478_110)"/>
<path d="M183.4 103H170.2V33.2H201.7C204.9 33.2 207.767 33.7 210.3 34.7C212.833 35.7 214.967 37.1667 216.7 39.1C218.5 40.9667 219.867 43.2333 220.8 45.9C221.8 48.5667 222.3 51.5333 222.3 54.8C222.3 59.6 221.2 63.7333 219 67.2C216.867 70.6667 213.633 73.1333 209.3 74.6L223.6 103H208.9L195.9 76.1H183.4V103ZM200.4 65C202.933 65 204.933 64.3333 206.4 63C207.867 61.6 208.6 59.6333 208.6 57.1V52.5C208.6 49.9667 207.867 48.0333 206.4 46.7C204.933 45.3667 202.933 44.7 200.4 44.7H183.4V65H200.4ZM238.606 103V33.2H284.606V44.9H251.806V61.8H280.806V73.5H251.806V91.3H284.606V103H238.606ZM300.567 33.2H325.967C330.501 33.2 334.601 33.9333 338.267 35.4C342.001 36.8667 345.167 39.0667 347.767 42C350.434 44.8667 352.467 48.5 353.867 52.9C355.334 57.2333 356.067 62.3 356.067 68.1C356.067 73.9 355.334 79 353.867 83.4C352.467 87.7333 350.434 91.3667 347.767 94.3C345.167 97.1667 342.001 99.3333 338.267 100.8C334.601 102.267 330.501 103 325.967 103H300.567V33.2ZM325.967 91.3C330.901 91.3 334.801 89.8667 337.667 87C340.601 84.0667 342.067 79.6 342.067 73.6V62.6C342.067 56.6 340.601 52.1667 337.667 49.3C334.801 46.3667 330.901 44.9 325.967 44.9H313.767V91.3H325.967Z" fill="url(#paint1_linear_2478_110)"/>
<path d="M397.145 103V33.2H428.545C431.745 33.2 434.612 33.7333 437.145 34.8C439.745 35.8 441.945 37.2667 443.745 39.2C445.545 41.0667 446.912 43.3333 447.845 46C448.779 48.6667 449.245 51.6 449.245 54.8C449.245 58.0667 448.779 61.0333 447.845 63.7C446.912 66.3 445.545 68.5667 443.745 70.5C441.945 72.3667 439.745 73.8333 437.145 74.9C434.612 75.9 431.745 76.4 428.545 76.4H410.345V103H397.145ZM410.345 65H427.345C429.879 65 431.879 64.3333 433.345 63C434.812 61.6 435.545 59.6333 435.545 57.1V52.5C435.545 49.9667 434.812 48.0333 433.345 46.7C431.879 45.3667 429.879 44.7 427.345 44.7H410.345V65ZM505.508 73.5H476.408V103H463.208V33.2H476.408V61.8H505.508V33.2H518.708V103H505.508V73.5ZM564.483 104.2C559.883 104.2 555.716 103.433 551.983 101.9C548.249 100.367 545.049 98.0667 542.383 95C539.783 91.9333 537.749 88.1667 536.283 83.7C534.816 79.2333 534.083 74.0333 534.083 68.1C534.083 62.2333 534.816 57.0667 536.283 52.6C537.749 48.0667 539.783 44.2667 542.383 41.2C545.049 38.1333 548.249 35.8333 551.983 34.3C555.716 32.7667 559.883 32 564.483 32C569.083 32 573.249 32.7667 576.983 34.3C580.716 35.8333 583.916 38.1333 586.583 41.2C589.249 44.2667 591.283 48.0667 592.683 52.6C594.149 57.0667 594.883 62.2333 594.883 68.1C594.883 74.0333 594.149 79.2333 592.683 83.7C591.283 88.1667 589.249 91.9333 586.583 95C583.916 98.0667 580.716 100.367 576.983 101.9C573.249 103.433 569.083 104.2 564.483 104.2ZM564.483 92.5C569.483 92.5 573.449 90.8333 576.383 87.5C579.383 84.1667 580.883 79.5 580.883 73.5V62.7C580.883 56.7 579.383 52.0333 576.383 48.7C573.449 45.3667 569.483 43.7 564.483 43.7C559.483 43.7 555.483 45.3667 552.483 48.7C549.549 52.0333 548.083 56.7 548.083 62.7V73.5C548.083 79.5 549.549 84.1667 552.483 87.5C555.483 90.8333 559.483 92.5 564.483 92.5ZM610.274 103V33.2H656.274V44.9H623.474V61.8H652.474V73.5H623.474V91.3H656.274V103H610.274ZM692.235 67.2L685.035 52.7H684.735V103H672.235V33.2H686.735L707.735 69L714.935 83.5H715.235V33.2H727.735V103H713.235L692.235 67.2ZM743.21 103V92.4H752.41V43.8H743.21V33.2H774.91V43.8H765.61V92.4H774.91V103H743.21ZM845.895 103H830.495L814.495 76.2H814.195L798.395 103H783.995L806.595 67.2L784.995 33.2H800.395L815.195 58H815.495L830.495 33.2H844.895L823.095 67.2L845.895 103Z" fill="url(#paint2_linear_2478_110)"/>
<defs>
<linearGradient id="paint0_linear_2478_110" x1="21.6667" y1="8.12464" x2="121.876" y2="138.125" gradientUnits="userSpaceOnUse">
<stop offset="0.103063" stop-color="#FF8C34"/>
<stop offset="0.352064" stop-color="#EB4F2E"/>
<stop offset="0.535638" stop-color="#EB393C"/>
<stop offset="0.700851" stop-color="#C71625"/>
</linearGradient>
<linearGradient id="paint1_linear_2478_110" x1="276.885" y1="35.4819" x2="305.916" y2="243.692" gradientUnits="userSpaceOnUse">
<stop stop-color="#B91C1C"/>
<stop offset="0.299427" stop-color="#EF4444"/>
<stop offset="0.507263" stop-color="#DC2626"/>
<stop offset="0.653778" stop-color="#F97316"/>
</linearGradient>
<linearGradient id="paint2_linear_2478_110" x1="175.192" y1="85" x2="283.286" y2="370.029" gradientUnits="userSpaceOnUse">
<stop stop-color="#B91C1C"/>
<stop offset="0.16968" stop-color="#EF4444"/>
<stop offset="0.316562" stop-color="#DC2626"/>
<stop offset="0.677054" stop-color="#F97316"/>
</linearGradient>
</defs>
</svg>
