<svg width="205" height="32" viewBox="0 0 205 32" fill="none" xmlns="http://www.w3.org/2000/svg">
<path d="M16.001 29.334L13.334 25.334H18.667L16.001 29.334ZM15.9893 17.3535L28 6.69727L27.9873 12.0342L16.667 22.667L18.667 25.333H13.334L15.334 22.667H15.333L4 12.0029L4.01367 6.66699L15.9893 17.3535ZM22.665 7.94238L15.999 13.667L9.33203 7.94238V3L15.999 8.33301L22.665 3V7.94238Z" fill="url(#paint0_linear_2478_90)"/>
<path d="M45.136 25H41.968V8.248H49.528C50.296 8.248 50.984 8.368 51.592 8.608C52.2 8.848 52.712 9.2 53.128 9.664C53.56 10.112 53.888 10.656 54.112 11.296C54.352 11.936 54.472 12.648 54.472 13.432C54.472 14.584 54.208 15.576 53.68 16.408C53.168 17.24 52.392 17.832 51.352 18.184L54.784 25H51.256L48.136 18.544H45.136V25ZM49.216 15.88C49.824 15.88 50.304 15.72 50.656 15.4C51.008 15.064 51.184 14.592 51.184 13.984V12.88C51.184 12.272 51.008 11.808 50.656 11.488C50.304 11.168 49.824 11.008 49.216 11.008H45.136V15.88H49.216ZM58.3855 25V8.248H69.4255V11.056H61.5535V15.112H68.5135V17.92H61.5535V22.192H69.4255V25H58.3855ZM73.2561 8.248H79.3521C80.4401 8.248 81.4241 8.424 82.3041 8.776C83.2001 9.128 83.9601 9.656 84.5841 10.36C85.2241 11.048 85.7121 11.92 86.0481 12.976C86.4001 14.016 86.5761 15.232 86.5761 16.624C86.5761 18.016 86.4001 19.24 86.0481 20.296C85.7121 21.336 85.2241 22.208 84.5841 22.912C83.9601 23.6 83.2001 24.12 82.3041 24.472C81.4241 24.824 80.4401 25 79.3521 25H73.2561V8.248ZM79.3521 22.192C80.5361 22.192 81.4721 21.848 82.1601 21.16C82.8641 20.456 83.2161 19.384 83.2161 17.944V15.304C83.2161 13.864 82.8641 12.8 82.1601 12.112C81.4721 11.408 80.5361 11.056 79.3521 11.056H76.4241V22.192H79.3521Z" fill="url(#paint1_linear_2478_90)"/>
<path d="M96.4349 25V8.248H103.971C104.739 8.248 105.427 8.376 106.035 8.632C106.659 8.872 107.187 9.224 107.619 9.688C108.051 10.136 108.379 10.68 108.603 11.32C108.827 11.96 108.939 12.664 108.939 13.432C108.939 14.216 108.827 14.928 108.603 15.568C108.379 16.192 108.051 16.736 107.619 17.2C107.187 17.648 106.659 18 106.035 18.256C105.427 18.496 104.739 18.616 103.971 18.616H99.6029V25H96.4349ZM99.6029 15.88H103.683C104.291 15.88 104.771 15.72 105.123 15.4C105.475 15.064 105.651 14.592 105.651 13.984V12.88C105.651 12.272 105.475 11.808 105.123 11.488C104.771 11.168 104.291 11.008 103.683 11.008H99.6029V15.88ZM122.442 17.92H115.458V25H112.29V8.248H115.458V15.112H122.442V8.248H125.61V25H122.442V17.92ZM136.596 25.288C135.492 25.288 134.492 25.104 133.596 24.736C132.7 24.368 131.932 23.816 131.292 23.08C130.668 22.344 130.18 21.44 129.828 20.368C129.476 19.296 129.3 18.048 129.3 16.624C129.3 15.216 129.476 13.976 129.828 12.904C130.18 11.816 130.668 10.904 131.292 10.168C131.932 9.432 132.7 8.88 133.596 8.512C134.492 8.144 135.492 7.96 136.596 7.96C137.7 7.96 138.7 8.144 139.596 8.512C140.492 8.88 141.26 9.432 141.9 10.168C142.54 10.904 143.028 11.816 143.364 12.904C143.716 13.976 143.892 15.216 143.892 16.624C143.892 18.048 143.716 19.296 143.364 20.368C143.028 21.44 142.54 22.344 141.9 23.08C141.26 23.816 140.492 24.368 139.596 24.736C138.7 25.104 137.7 25.288 136.596 25.288ZM136.596 22.48C137.796 22.48 138.748 22.08 139.452 21.28C140.172 20.48 140.532 19.36 140.532 17.92V15.328C140.532 13.888 140.172 12.768 139.452 11.968C138.748 11.168 137.796 10.768 136.596 10.768C135.396 10.768 134.436 11.168 133.716 11.968C133.012 12.768 132.66 13.888 132.66 15.328V17.92C132.66 19.36 133.012 20.48 133.716 21.28C134.436 22.08 135.396 22.48 136.596 22.48ZM147.586 25V8.248H158.626V11.056H150.754V15.112H157.714V17.92H150.754V22.192H158.626V25H147.586ZM167.256 16.408L165.528 12.928H165.456V25H162.456V8.248H165.936L170.976 16.84L172.704 20.32H172.776V8.248H175.776V25H172.296L167.256 16.408ZM179.49 25V22.456H181.698V10.792H179.49V8.248H187.098V10.792H184.866V22.456H187.098V25H179.49ZM204.135 25H200.439L196.599 18.568H196.527L192.735 25H189.279L194.703 16.408L189.519 8.248H193.215L196.767 14.2H196.839L200.439 8.248H203.895L198.663 16.408L204.135 25Z" fill="url(#paint2_linear_2478_90)"/>
<defs>
<linearGradient id="paint0_linear_2478_90" x1="5.33333" y1="1.99999" x2="30.0007" y2="34.0002" gradientUnits="userSpaceOnUse">
<stop offset="0.103063" stop-color="#FF8C34"/>
<stop offset="0.352064" stop-color="#EB4F2E"/>
<stop offset="0.535638" stop-color="#EB393C"/>
<stop offset="0.700851" stop-color="#C71625"/>
</linearGradient>
<linearGradient id="paint1_linear_2478_90" x1="67.6326" y1="8.91566" x2="74.5856" y2="58.8901" gradientUnits="userSpaceOnUse">
<stop stop-color="#B91C1C"/>
<stop offset="0.299427" stop-color="#EF4444"/>
<stop offset="0.507263" stop-color="#DC2626"/>
<stop offset="0.653778" stop-color="#F97316"/>
</linearGradient>
<linearGradient id="paint2_linear_2478_90" x1="43.1731" y1="20.8" x2="69.0731" y2="89.2444" gradientUnits="userSpaceOnUse">
<stop stop-color="#B91C1C"/>
<stop offset="0.16968" stop-color="#EF4444"/>
<stop offset="0.316562" stop-color="#DC2626"/>
<stop offset="0.677054" stop-color="#F97316"/>
</linearGradient>
</defs>
</svg>
