<svg width="87" height="16" viewBox="0 0 87 16" fill="none" xmlns="http://www.w3.org/2000/svg">
<path d="M7.99902 14.667L6.66602 12.667L7.66602 11.333H7.66699L2 6.00195L2.00684 3.33301L7.99414 8.67676L14 3.34863L13.9932 6.01758L8.33301 11.333L9.33301 12.667L7.99902 14.667ZM11.333 3.97168L7.99902 6.83301L4.66602 3.97168V1.5L7.99902 4.16699L11.333 1.5V3.97168Z" fill="url(#paint0_linear_2478_80)"/>
<path d="M20.14 12H18.82V5.02H21.97C22.29 5.02 22.5767 5.07 22.83 5.17C23.0833 5.27 23.2967 5.41667 23.47 5.61C23.65 5.79667 23.7867 6.02333 23.88 6.29C23.98 6.55667 24.03 6.85333 24.03 7.18C24.03 7.66 23.92 8.07333 23.7 8.42C23.4867 8.76667 23.1633 9.01333 22.73 9.16L24.16 12H22.69L21.39 9.31H20.14V12ZM21.84 8.2C22.0933 8.2 22.2933 8.13333 22.44 8C22.5867 7.86 22.66 7.66333 22.66 7.41V6.95C22.66 6.69667 22.5867 6.50333 22.44 6.37C22.2933 6.23667 22.0933 6.17 21.84 6.17H20.14V8.2H21.84ZM25.6606 12V5.02H30.2606V6.19H26.9806V7.88H29.8806V9.05H26.9806V10.83H30.2606V12H25.6606ZM31.8567 5.02H34.3967C34.8501 5.02 35.2601 5.09333 35.6267 5.24C36.0001 5.38667 36.3167 5.60667 36.5767 5.9C36.8434 6.18667 37.0467 6.55 37.1867 6.99C37.3334 7.42333 37.4067 7.93 37.4067 8.51C37.4067 9.09 37.3334 9.6 37.1867 10.04C37.0467 10.4733 36.8434 10.8367 36.5767 11.13C36.3167 11.4167 36.0001 11.6333 35.6267 11.78C35.2601 11.9267 34.8501 12 34.3967 12H31.8567V5.02ZM34.3967 10.83C34.8901 10.83 35.2801 10.6867 35.5667 10.4C35.8601 10.1067 36.0067 9.66 36.0067 9.06V7.96C36.0067 7.36 35.8601 6.91667 35.5667 6.63C35.2801 6.33667 34.8901 6.19 34.3967 6.19H33.1767V10.83H34.3967Z" fill="url(#paint1_linear_2478_80)"/>
<path d="M41.5145 12V5.02H44.6545C44.9745 5.02 45.2612 5.07333 45.5145 5.18C45.7745 5.28 45.9945 5.42667 46.1745 5.62C46.3545 5.80667 46.4912 6.03333 46.5845 6.3C46.6779 6.56667 46.7245 6.86 46.7245 7.18C46.7245 7.50667 46.6779 7.80333 46.5845 8.07C46.4912 8.33 46.3545 8.55667 46.1745 8.75C45.9945 8.93667 45.7745 9.08333 45.5145 9.19C45.2612 9.29 44.9745 9.34 44.6545 9.34H42.8345V12H41.5145ZM42.8345 8.2H44.5345C44.7879 8.2 44.9879 8.13333 45.1345 8C45.2812 7.86 45.3545 7.66333 45.3545 7.41V6.95C45.3545 6.69667 45.2812 6.50333 45.1345 6.37C44.9879 6.23667 44.7879 6.17 44.5345 6.17H42.8345V8.2ZM52.3508 9.05H49.4408V12H48.1208V5.02H49.4408V7.88H52.3508V5.02H53.6708V12H52.3508V9.05ZM58.2483 12.12C57.7883 12.12 57.3716 12.0433 56.9983 11.89C56.6249 11.7367 56.3049 11.5067 56.0383 11.2C55.7783 10.8933 55.5749 10.5167 55.4283 10.07C55.2816 9.62333 55.2083 9.10333 55.2083 8.51C55.2083 7.92333 55.2816 7.40667 55.4283 6.96C55.5749 6.50667 55.7783 6.12667 56.0383 5.82C56.3049 5.51333 56.6249 5.28333 56.9983 5.13C57.3716 4.97667 57.7883 4.9 58.2483 4.9C58.7083 4.9 59.1249 4.97667 59.4983 5.13C59.8716 5.28333 60.1916 5.51333 60.4583 5.82C60.7249 6.12667 60.9283 6.50667 61.0683 6.96C61.2149 7.40667 61.2883 7.92333 61.2883 8.51C61.2883 9.10333 61.2149 9.62333 61.0683 10.07C60.9283 10.5167 60.7249 10.8933 60.4583 11.2C60.1916 11.5067 59.8716 11.7367 59.4983 11.89C59.1249 12.0433 58.7083 12.12 58.2483 12.12ZM58.2483 10.95C58.7483 10.95 59.1449 10.7833 59.4383 10.45C59.7383 10.1167 59.8883 9.65 59.8883 9.05V7.97C59.8883 7.37 59.7383 6.90333 59.4383 6.57C59.1449 6.23667 58.7483 6.07 58.2483 6.07C57.7483 6.07 57.3483 6.23667 57.0483 6.57C56.7549 6.90333 56.6083 7.37 56.6083 7.97V9.05C56.6083 9.65 56.7549 10.1167 57.0483 10.45C57.3483 10.7833 57.7483 10.95 58.2483 10.95ZM62.8274 12V5.02H67.4274V6.19H64.1474V7.88H67.0474V9.05H64.1474V10.83H67.4274V12H62.8274ZM71.0235 8.42L70.3035 6.97H70.2735V12H69.0235V5.02H70.4735L72.5735 8.6L73.2935 10.05H73.3235V5.02H74.5735V12H73.1235L71.0235 8.42ZM76.121 12V10.94H77.041V6.08H76.121V5.02H79.291V6.08H78.361V10.94H79.291V12H76.121ZM86.3895 12H84.8495L83.2495 9.32H83.2195L81.6395 12H80.1995L82.4595 8.42L80.2995 5.02H81.8395L83.3195 7.5H83.3495L84.8495 5.02H86.2895L84.1095 8.42L86.3895 12Z" fill="url(#paint2_linear_2478_80)"/>
<defs>
<linearGradient id="paint0_linear_2478_80" x1="2.66667" y1="0.999994" x2="15.0004" y2="17.0001" gradientUnits="userSpaceOnUse">
<stop offset="0.103063" stop-color="#FF8C34"/>
<stop offset="0.352064" stop-color="#EB4F2E"/>
<stop offset="0.535638" stop-color="#EB393C"/>
<stop offset="0.700851" stop-color="#C71625"/>
</linearGradient>
<linearGradient id="paint1_linear_2478_80" x1="29.5554" y1="5.04819" x2="32.4424" y2="25.8738" gradientUnits="userSpaceOnUse">
<stop stop-color="#B91C1C"/>
<stop offset="0.299427" stop-color="#EF4444"/>
<stop offset="0.507263" stop-color="#DC2626"/>
<stop offset="0.653778" stop-color="#F97316"/>
</linearGradient>
<linearGradient id="paint2_linear_2478_80" x1="19.3269" y1="10" x2="30.0892" y2="38.5444" gradientUnits="userSpaceOnUse">
<stop stop-color="#B91C1C"/>
<stop offset="0.16968" stop-color="#EF4444"/>
<stop offset="0.316562" stop-color="#DC2626"/>
<stop offset="0.677054" stop-color="#F97316"/>
</linearGradient>
</defs>
</svg>
