<svg width="1584" height="396" viewBox="0 0 1584 396" fill="none" xmlns="http://www.w3.org/2000/svg">
<g clip-path="url(#clip0_2478_172)">
<rect width="1584" height="396" fill="#0F0F0F"/>
<path d="M547 298L527 268L542 248L457 168.025L457.1 128L546.919 208.149L637 128.232L636.902 168.258L552 248L567 268L547 298ZM597 141.07L547 184L497 141.07V104L547 144L597 104V141.07Z" fill="url(#paint0_linear_2478_172)"/>
<path d="M720.4 186H707.2V116.2H738.7C741.9 116.2 744.767 116.7 747.3 117.7C749.833 118.7 751.967 120.167 753.7 122.1C755.5 123.967 756.867 126.233 757.8 128.9C758.8 131.567 759.3 134.533 759.3 137.8C759.3 142.6 758.2 146.733 756 150.2C753.867 153.667 750.633 156.133 746.3 157.6L760.6 186H745.9L732.9 159.1H720.4V186ZM737.4 148C739.933 148 741.933 147.333 743.4 146C744.867 144.6 745.6 142.633 745.6 140.1V135.5C745.6 132.967 744.867 131.033 743.4 129.7C741.933 128.367 739.933 127.7 737.4 127.7H720.4V148H737.4ZM775.606 186V116.2H821.606V127.9H788.806V144.8H817.806V156.5H788.806V174.3H821.606V186H775.606ZM837.567 116.2H862.967C867.501 116.2 871.601 116.933 875.267 118.4C879.001 119.867 882.167 122.067 884.767 125C887.434 127.867 889.467 131.5 890.867 135.9C892.334 140.233 893.067 145.3 893.067 151.1C893.067 156.9 892.334 162 890.867 166.4C889.467 170.733 887.434 174.367 884.767 177.3C882.167 180.167 879.001 182.333 875.267 183.8C871.601 185.267 867.501 186 862.967 186H837.567V116.2ZM862.967 174.3C867.901 174.3 871.801 172.867 874.667 170C877.601 167.067 879.067 162.6 879.067 156.6V145.6C879.067 139.6 877.601 135.167 874.667 132.3C871.801 129.367 867.901 127.9 862.967 127.9H850.767V174.3H862.967Z" fill="url(#paint1_linear_2478_172)"/>
<path d="M707.2 286V216.2H738.6C741.8 216.2 744.667 216.733 747.2 217.8C749.8 218.8 752 220.267 753.8 222.2C755.6 224.067 756.967 226.333 757.9 229C758.833 231.667 759.3 234.6 759.3 237.8C759.3 241.067 758.833 244.033 757.9 246.7C756.967 249.3 755.6 251.567 753.8 253.5C752 255.367 749.8 256.833 747.2 257.9C744.667 258.9 741.8 259.4 738.6 259.4H720.4V286H707.2ZM720.4 248H737.4C739.933 248 741.933 247.333 743.4 246C744.867 244.6 745.6 242.633 745.6 240.1V235.5C745.6 232.967 744.867 231.033 743.4 229.7C741.933 228.367 739.933 227.7 737.4 227.7H720.4V248ZM815.562 256.5H786.463V286H773.263V216.2H786.463V244.8H815.562V216.2H828.763V286H815.562V256.5ZM874.538 287.2C869.938 287.2 865.771 286.433 862.038 284.9C858.304 283.367 855.104 281.067 852.438 278C849.838 274.933 847.804 271.167 846.338 266.7C844.871 262.233 844.138 257.033 844.138 251.1C844.138 245.233 844.871 240.067 846.338 235.6C847.804 231.067 849.838 227.267 852.438 224.2C855.104 221.133 858.304 218.833 862.038 217.3C865.771 215.767 869.938 215 874.538 215C879.138 215 883.304 215.767 887.038 217.3C890.771 218.833 893.971 221.133 896.638 224.2C899.304 227.267 901.338 231.067 902.738 235.6C904.204 240.067 904.938 245.233 904.938 251.1C904.938 257.033 904.204 262.233 902.738 266.7C901.338 271.167 899.304 274.933 896.638 278C893.971 281.067 890.771 283.367 887.038 284.9C883.304 286.433 879.138 287.2 874.538 287.2ZM874.538 275.5C879.538 275.5 883.504 273.833 886.438 270.5C889.438 267.167 890.938 262.5 890.938 256.5V245.7C890.938 239.7 889.438 235.033 886.438 231.7C883.504 228.367 879.538 226.7 874.538 226.7C869.538 226.7 865.538 228.367 862.538 231.7C859.604 235.033 858.138 239.7 858.138 245.7V256.5C858.138 262.5 859.604 267.167 862.538 270.5C865.538 273.833 869.538 275.5 874.538 275.5ZM920.329 286V216.2H966.329V227.9H933.529V244.8H962.529V256.5H933.529V274.3H966.329V286H920.329ZM1002.29 250.2L995.09 235.7H994.79V286H982.29V216.2H996.79L1017.79 252L1024.99 266.5H1025.29V216.2H1037.79V286H1023.29L1002.29 250.2ZM1053.26 286V275.4H1062.46V226.8H1053.26V216.2H1084.96V226.8H1075.66V275.4H1084.96V286H1053.26ZM1155.95 286H1140.55L1124.55 259.2H1124.25L1108.45 286H1094.05L1116.65 250.2L1095.05 216.2H1110.45L1125.25 241H1125.55L1140.55 216.2H1154.95L1133.15 250.2L1155.95 286Z" fill="url(#paint2_linear_2478_172)"/>
<line x1="1318.78" y1="-241" x2="1318.78" y2="839" stroke="#EB3C3A" stroke-opacity="0.5" stroke-width="0.1"/>
<line x1="910.962" y1="-241" x2="910.962" y2="839" stroke="#EB3C3A" stroke-opacity="0.5" stroke-width="0.1"/>
<line x1="2127" y1="317.55" x2="799.481" y2="317.55" stroke="#EB3C3A" stroke-opacity="0.5" stroke-width="0.1"/>
<line x1="2127" y1="86.55" x2="799.481" y2="86.5498" stroke="#EB3C3A" stroke-opacity="0.5" stroke-width="0.1"/>
<line x1="647.161" y1="-241" x2="647.161" y2="839" stroke="#EB3C3A" stroke-opacity="0.5" stroke-width="0.1"/>
<line x1="252.316" y1="-241" x2="252.315" y2="839" stroke="#EB3C3A" stroke-opacity="0.5" stroke-width="0.1"/>
<line x1="1033.99" y1="317.55" x2="-249.937" y2="317.55" stroke="#EB3C3A" stroke-opacity="0.5" stroke-width="0.1"/>
<line x1="1033.99" y1="86.55" x2="-249.937" y2="86.5498" stroke="#EB3C3A" stroke-opacity="0.5" stroke-width="0.1"/>
</g>
<defs>
<linearGradient id="paint0_linear_2478_172" x1="467" y1="93" x2="652" y2="333" gradientUnits="userSpaceOnUse">
<stop offset="0.103063" stop-color="#FF8C34"/>
<stop offset="0.352064" stop-color="#EB4F2E"/>
<stop offset="0.535638" stop-color="#EB393C"/>
<stop offset="0.700851" stop-color="#C71625"/>
</linearGradient>
<linearGradient id="paint1_linear_2478_172" x1="775.869" y1="138.964" x2="926.615" y2="500.651" gradientUnits="userSpaceOnUse">
<stop stop-color="#B91C1C"/>
<stop offset="0.299427" stop-color="#EF4444"/>
<stop offset="0.507263" stop-color="#DC2626"/>
<stop offset="0.653778" stop-color="#F97316"/>
</linearGradient>
<linearGradient id="paint2_linear_2478_172" x1="707.827" y1="238" x2="1031.3" y2="523.358" gradientUnits="userSpaceOnUse">
<stop stop-color="#B91C1C"/>
<stop offset="0.16968" stop-color="#EF4444"/>
<stop offset="0.316562" stop-color="#DC2626"/>
<stop offset="0.677054" stop-color="#F97316"/>
</linearGradient>
<clipPath id="clip0_2478_172">
<rect width="1584" height="396" fill="white"/>
</clipPath>
</defs>
</svg>
