<svg width="731" height="240" viewBox="0 0 731 240" fill="none" xmlns="http://www.w3.org/2000/svg">
<path d="M120 220L100 190L115 170L30 90.0254L30.0996 50L119.919 130.149L210 50.2324L209.902 90.2578L125 170L140 190L120 220ZM170 63.0703L120 106L70 63.0703V26L120 66L170 26V63.0703Z" fill="url(#paint0_linear_2478_163)"/>
<path d="M293.4 108H280.2V38.2H311.7C314.9 38.2 317.767 38.7 320.3 39.7C322.833 40.7 324.967 42.1667 326.7 44.1C328.5 45.9667 329.867 48.2333 330.8 50.9C331.8 53.5667 332.3 56.5333 332.3 59.8C332.3 64.6 331.2 68.7333 329 72.2C326.867 75.6667 323.633 78.1333 319.3 79.6L333.6 108H318.9L305.9 81.1H293.4V108ZM310.4 70C312.933 70 314.933 69.3333 316.4 68C317.867 66.6 318.6 64.6333 318.6 62.1V57.5C318.6 54.9667 317.867 53.0333 316.4 51.7C314.933 50.3667 312.933 49.7 310.4 49.7H293.4V70H310.4ZM348.606 108V38.2H394.606V49.9H361.806V66.8H390.806V78.5H361.806V96.3H394.606V108H348.606ZM410.567 38.2H435.967C440.501 38.2 444.601 38.9333 448.267 40.4C452.001 41.8667 455.167 44.0667 457.767 47C460.434 49.8667 462.467 53.5 463.867 57.9C465.334 62.2333 466.067 67.3 466.067 73.1C466.067 78.9 465.334 84 463.867 88.4C462.467 92.7333 460.434 96.3667 457.767 99.3C455.167 102.167 452.001 104.333 448.267 105.8C444.601 107.267 440.501 108 435.967 108H410.567V38.2ZM435.967 96.3C440.901 96.3 444.801 94.8667 447.667 92C450.601 89.0667 452.067 84.6 452.067 78.6V67.6C452.067 61.6 450.601 57.1667 447.667 54.3C444.801 51.3667 440.901 49.9 435.967 49.9H423.767V96.3H435.967Z" fill="url(#paint1_linear_2478_163)"/>
<path d="M280.2 208V138.2H311.6C314.8 138.2 317.667 138.733 320.2 139.8C322.8 140.8 325 142.267 326.8 144.2C328.6 146.067 329.967 148.333 330.9 151C331.833 153.667 332.3 156.6 332.3 159.8C332.3 163.067 331.833 166.033 330.9 168.7C329.967 171.3 328.6 173.567 326.8 175.5C325 177.367 322.8 178.833 320.2 179.9C317.667 180.9 314.8 181.4 311.6 181.4H293.4V208H280.2ZM293.4 170H310.4C312.933 170 314.933 169.333 316.4 168C317.867 166.6 318.6 164.633 318.6 162.1V157.5C318.6 154.967 317.867 153.033 316.4 151.7C314.933 150.367 312.933 149.7 310.4 149.7H293.4V170ZM388.562 178.5H359.463V208H346.263V138.2H359.463V166.8H388.562V138.2H401.763V208H388.562V178.5ZM447.538 209.2C442.938 209.2 438.771 208.433 435.038 206.9C431.304 205.367 428.104 203.067 425.438 200C422.838 196.933 420.804 193.167 419.338 188.7C417.871 184.233 417.138 179.033 417.138 173.1C417.138 167.233 417.871 162.067 419.338 157.6C420.804 153.067 422.838 149.267 425.438 146.2C428.104 143.133 431.304 140.833 435.038 139.3C438.771 137.767 442.938 137 447.538 137C452.138 137 456.304 137.767 460.038 139.3C463.771 140.833 466.971 143.133 469.638 146.2C472.304 149.267 474.338 153.067 475.738 157.6C477.204 162.067 477.938 167.233 477.938 173.1C477.938 179.033 477.204 184.233 475.738 188.7C474.338 193.167 472.304 196.933 469.638 200C466.971 203.067 463.771 205.367 460.038 206.9C456.304 208.433 452.138 209.2 447.538 209.2ZM447.538 197.5C452.538 197.5 456.504 195.833 459.438 192.5C462.438 189.167 463.938 184.5 463.938 178.5V167.7C463.938 161.7 462.438 157.033 459.438 153.7C456.504 150.367 452.538 148.7 447.538 148.7C442.538 148.7 438.538 150.367 435.538 153.7C432.604 157.033 431.138 161.7 431.138 167.7V178.5C431.138 184.5 432.604 189.167 435.538 192.5C438.538 195.833 442.538 197.5 447.538 197.5ZM493.329 208V138.2H539.329V149.9H506.529V166.8H535.529V178.5H506.529V196.3H539.329V208H493.329ZM575.29 172.2L568.09 157.7H567.79V208H555.29V138.2H569.79L590.79 174L597.99 188.5H598.29V138.2H610.79V208H596.29L575.29 172.2ZM626.265 208V197.4H635.465V148.8H626.265V138.2H657.965V148.8H648.665V197.4H657.965V208H626.265ZM728.95 208H713.55L697.55 181.2H697.25L681.45 208H667.05L689.65 172.2L668.05 138.2H683.45L698.25 163H698.55L713.55 138.2H727.95L706.15 172.2L728.95 208Z" fill="url(#paint2_linear_2478_163)"/>
<defs>
<linearGradient id="paint0_linear_2478_163" x1="40" y1="15" x2="225" y2="255" gradientUnits="userSpaceOnUse">
<stop offset="0.103063" stop-color="#FF8C34"/>
<stop offset="0.352064" stop-color="#EB4F2E"/>
<stop offset="0.535638" stop-color="#EB393C"/>
<stop offset="0.700851" stop-color="#C71625"/>
</linearGradient>
<linearGradient id="paint1_linear_2478_163" x1="348.869" y1="60.9639" x2="499.615" y2="422.651" gradientUnits="userSpaceOnUse">
<stop stop-color="#B91C1C"/>
<stop offset="0.299427" stop-color="#EF4444"/>
<stop offset="0.507263" stop-color="#DC2626"/>
<stop offset="0.653778" stop-color="#F97316"/>
</linearGradient>
<linearGradient id="paint2_linear_2478_163" x1="280.827" y1="160" x2="604.303" y2="445.358" gradientUnits="userSpaceOnUse">
<stop stop-color="#B91C1C"/>
<stop offset="0.16968" stop-color="#EF4444"/>
<stop offset="0.316562" stop-color="#DC2626"/>
<stop offset="0.677054" stop-color="#F97316"/>
</linearGradient>
</defs>
</svg>
