<svg width="83" height="42" viewBox="0 0 83 42" fill="none" xmlns="http://www.w3.org/2000/svg">
<path d="M41.5 22L39.5 19L41 17L32.5 9.00293L32.5098 5L41.4922 13.0146L50.5 5.02344L50.4902 9.02539L42 17L43.5 19L41.5 22ZM46.5 6.30664L41.5 10.5996L36.5 6.30664V2.59961L41.5 6.59961L46.5 2.59961V6.30664Z" fill="url(#paint0_linear_2478_153)"/>
<path d="M2.568 41H0.984V32.624H4.764C5.148 32.624 5.492 32.684 5.796 32.804C6.1 32.924 6.356 33.1 6.564 33.332C6.78 33.556 6.944 33.828 7.056 34.148C7.176 34.468 7.236 34.824 7.236 35.216C7.236 35.792 7.104 36.288 6.84 36.704C6.584 37.12 6.196 37.416 5.676 37.592L7.392 41H5.628L4.068 37.772H2.568V41ZM4.608 36.44C4.912 36.44 5.152 36.36 5.328 36.2C5.504 36.032 5.592 35.796 5.592 35.492V34.94C5.592 34.636 5.504 34.404 5.328 34.244C5.152 34.084 4.912 34.004 4.608 34.004H2.568V36.44H4.608ZM9.19275 41V32.624H14.7128V34.028H10.7767V36.056H14.2567V37.46H10.7767V39.596H14.7128V41H9.19275ZM16.6281 32.624H19.6761C20.2201 32.624 20.7121 32.712 21.1521 32.888C21.6001 33.064 21.9801 33.328 22.2921 33.68C22.6121 34.024 22.8561 34.46 23.0241 34.988C23.2001 35.508 23.2881 36.116 23.2881 36.812C23.2881 37.508 23.2001 38.12 23.0241 38.648C22.8561 39.168 22.6121 39.604 22.2921 39.956C21.9801 40.3 21.6001 40.56 21.1521 40.736C20.7121 40.912 20.2201 41 19.6761 41H16.6281V32.624ZM19.6761 39.596C20.2681 39.596 20.7361 39.424 21.0801 39.08C21.4321 38.728 21.6081 38.192 21.6081 37.472V36.152C21.6081 35.432 21.4321 34.9 21.0801 34.556C20.7361 34.204 20.2681 34.028 19.6761 34.028H18.2121V39.596H19.6761Z" fill="url(#paint1_linear_2478_153)"/>
<path d="M28.2174 41V32.624H31.9854C32.3694 32.624 32.7134 32.688 33.0174 32.816C33.3294 32.936 33.5934 33.112 33.8094 33.344C34.0254 33.568 34.1894 33.84 34.3014 34.16C34.4134 34.48 34.4694 34.832 34.4694 35.216C34.4694 35.608 34.4134 35.964 34.3014 36.284C34.1894 36.596 34.0254 36.868 33.8094 37.1C33.5934 37.324 33.3294 37.5 33.0174 37.628C32.7134 37.748 32.3694 37.808 31.9854 37.808H29.8014V41H28.2174ZM29.8014 36.44H31.8414C32.1454 36.44 32.3854 36.36 32.5614 36.2C32.7374 36.032 32.8254 35.796 32.8254 35.492V34.94C32.8254 34.636 32.7374 34.404 32.5614 34.244C32.3854 34.084 32.1454 34.004 31.8414 34.004H29.8014V36.44ZM41.2209 37.46H37.7289V41H36.1449V32.624H37.7289V36.056H41.2209V32.624H42.8049V41H41.2209V37.46ZM48.2979 41.144C47.7459 41.144 47.2459 41.052 46.7979 40.868C46.3499 40.684 45.9659 40.408 45.6459 40.04C45.3339 39.672 45.0899 39.22 44.9139 38.684C44.7379 38.148 44.6499 37.524 44.6499 36.812C44.6499 36.108 44.7379 35.488 44.9139 34.952C45.0899 34.408 45.3339 33.952 45.6459 33.584C45.9659 33.216 46.3499 32.94 46.7979 32.756C47.2459 32.572 47.7459 32.48 48.2979 32.48C48.8499 32.48 49.3499 32.572 49.7979 32.756C50.2459 32.94 50.6299 33.216 50.9499 33.584C51.2699 33.952 51.5139 34.408 51.6819 34.952C51.8579 35.488 51.9459 36.108 51.9459 36.812C51.9459 37.524 51.8579 38.148 51.6819 38.684C51.5139 39.22 51.2699 39.672 50.9499 40.04C50.6299 40.408 50.2459 40.684 49.7979 40.868C49.3499 41.052 48.8499 41.144 48.2979 41.144ZM48.2979 39.74C48.8979 39.74 49.3739 39.54 49.7259 39.14C50.0859 38.74 50.2659 38.18 50.2659 37.46V36.164C50.2659 35.444 50.0859 34.884 49.7259 34.484C49.3739 34.084 48.8979 33.884 48.2979 33.884C47.6979 33.884 47.2179 34.084 46.8579 34.484C46.5059 34.884 46.3299 35.444 46.3299 36.164V37.46C46.3299 38.18 46.5059 38.74 46.8579 39.14C47.2179 39.54 47.6979 39.74 48.2979 39.74ZM53.7929 41V32.624H59.3129V34.028H55.3769V36.056H58.8569V37.46H55.3769V39.596H59.3129V41H53.7929ZM63.6282 36.704L62.7642 34.964H62.7282V41H61.2282V32.624H62.9682L65.4882 36.92L66.3522 38.66H66.3882V32.624H67.8882V41H66.1482L63.6282 36.704ZM69.7452 41V39.728H70.8492V33.896H69.7452V32.624H73.5492V33.896H72.4332V39.728H73.5492V41H69.7452ZM82.0674 41H80.2194L78.2994 37.784H78.2634L76.3674 41H74.6394L77.3514 36.704L74.7594 32.624H76.6074L78.3834 35.6H78.4194L80.2194 32.624H81.9474L79.3314 36.704L82.0674 41Z" fill="url(#paint2_linear_2478_153)"/>
<defs>
<linearGradient id="paint0_linear_2478_153" x1="33.5" y1="1.49959" x2="52.0005" y2="25.4997" gradientUnits="userSpaceOnUse">
<stop offset="0.103063" stop-color="#FF8C34"/>
<stop offset="0.352064" stop-color="#EB4F2E"/>
<stop offset="0.535638" stop-color="#EB393C"/>
<stop offset="0.700851" stop-color="#C71625"/>
</linearGradient>
<linearGradient id="paint1_linear_2478_153" x1="13.9" y1="32.4578" x2="17.3564" y2="57.4508" gradientUnits="userSpaceOnUse">
<stop stop-color="#B91C1C"/>
<stop offset="0.299427" stop-color="#EF4444"/>
<stop offset="0.507263" stop-color="#DC2626"/>
<stop offset="0.653778" stop-color="#F97316"/>
</linearGradient>
<linearGradient id="paint2_linear_2478_153" x1="1.59615" y1="38.4" x2="14.4875" y2="72.6738" gradientUnits="userSpaceOnUse">
<stop stop-color="#B91C1C"/>
<stop offset="0.16968" stop-color="#EF4444"/>
<stop offset="0.316562" stop-color="#DC2626"/>
<stop offset="0.677054" stop-color="#F97316"/>
</linearGradient>
</defs>
</svg>
