<svg width="686" height="312" viewBox="0 0 686 312" fill="none" xmlns="http://www.w3.org/2000/svg">
<path d="M343 165L328 142.5L339.25 127.5L275.5 67.5186L275.574 37.5L342.939 97.6123L410.5 37.6748L410.427 67.6934L346.75 127.5L358 142.5L343 165ZM380.5 47.3027L343 79.5L305.5 47.3027V19.5L343 49.5L380.5 19.5V47.3027Z" fill="url(#paint0_linear_2478_129)"/>
<path d="M21.4 300H8.2V230.2H39.7C42.9 230.2 45.7667 230.7 48.3 231.7C50.8333 232.7 52.9667 234.167 54.7 236.1C56.5 237.967 57.8667 240.233 58.8 242.9C59.8 245.567 60.3 248.533 60.3 251.8C60.3 256.6 59.2 260.733 57 264.2C54.8667 267.667 51.6333 270.133 47.3 271.6L61.6 300H46.9L33.9 273.1H21.4V300ZM38.4 262C40.9333 262 42.9333 261.333 44.4 260C45.8667 258.6 46.6 256.633 46.6 254.1V249.5C46.6 246.967 45.8667 245.033 44.4 243.7C42.9333 242.367 40.9333 241.7 38.4 241.7H21.4V262H38.4ZM76.6063 300V230.2H122.606V241.9H89.8063V258.8H118.806V270.5H89.8063V288.3H122.606V300H76.6063ZM138.567 230.2H163.967C168.501 230.2 172.601 230.933 176.267 232.4C180.001 233.867 183.167 236.067 185.767 239C188.434 241.867 190.467 245.5 191.867 249.9C193.334 254.233 194.067 259.3 194.067 265.1C194.067 270.9 193.334 276 191.867 280.4C190.467 284.733 188.434 288.367 185.767 291.3C183.167 294.167 180.001 296.333 176.267 297.8C172.601 299.267 168.501 300 163.967 300H138.567V230.2ZM163.967 288.3C168.901 288.3 172.801 286.867 175.667 284C178.601 281.067 180.067 276.6 180.067 270.6V259.6C180.067 253.6 178.601 249.167 175.667 246.3C172.801 243.367 168.901 241.9 163.967 241.9H151.767V288.3H163.967Z" fill="url(#paint1_linear_2478_129)"/>
<path d="M235.145 300V230.2H266.545C269.745 230.2 272.612 230.733 275.145 231.8C277.745 232.8 279.945 234.267 281.745 236.2C283.545 238.067 284.912 240.333 285.845 243C286.779 245.667 287.245 248.6 287.245 251.8C287.245 255.067 286.779 258.033 285.845 260.7C284.912 263.3 283.545 265.567 281.745 267.5C279.945 269.367 277.745 270.833 275.145 271.9C272.612 272.9 269.745 273.4 266.545 273.4H248.345V300H235.145ZM248.345 262H265.345C267.879 262 269.879 261.333 271.345 260C272.812 258.6 273.545 256.633 273.545 254.1V249.5C273.545 246.967 272.812 245.033 271.345 243.7C269.879 242.367 267.879 241.7 265.345 241.7H248.345V262ZM343.508 270.5H314.408V300H301.208V230.2H314.408V258.8H343.508V230.2H356.708V300H343.508V270.5ZM402.483 301.2C397.883 301.2 393.716 300.433 389.983 298.9C386.249 297.367 383.049 295.067 380.383 292C377.783 288.933 375.749 285.167 374.283 280.7C372.816 276.233 372.083 271.033 372.083 265.1C372.083 259.233 372.816 254.067 374.283 249.6C375.749 245.067 377.783 241.267 380.383 238.2C383.049 235.133 386.249 232.833 389.983 231.3C393.716 229.767 397.883 229 402.483 229C407.083 229 411.249 229.767 414.983 231.3C418.716 232.833 421.916 235.133 424.583 238.2C427.249 241.267 429.283 245.067 430.683 249.6C432.149 254.067 432.883 259.233 432.883 265.1C432.883 271.033 432.149 276.233 430.683 280.7C429.283 285.167 427.249 288.933 424.583 292C421.916 295.067 418.716 297.367 414.983 298.9C411.249 300.433 407.083 301.2 402.483 301.2ZM402.483 289.5C407.483 289.5 411.449 287.833 414.383 284.5C417.383 281.167 418.883 276.5 418.883 270.5V259.7C418.883 253.7 417.383 249.033 414.383 245.7C411.449 242.367 407.483 240.7 402.483 240.7C397.483 240.7 393.483 242.367 390.483 245.7C387.549 249.033 386.083 253.7 386.083 259.7V270.5C386.083 276.5 387.549 281.167 390.483 284.5C393.483 287.833 397.483 289.5 402.483 289.5ZM448.274 300V230.2H494.274V241.9H461.474V258.8H490.474V270.5H461.474V288.3H494.274V300H448.274ZM530.235 264.2L523.035 249.7H522.735V300H510.235V230.2H524.735L545.735 266L552.935 280.5H553.235V230.2H565.735V300H551.235L530.235 264.2ZM581.21 300V289.4H590.41V240.8H581.21V230.2H612.91V240.8H603.61V289.4H612.91V300H581.21ZM683.895 300H668.495L652.495 273.2H652.195L636.395 300H621.995L644.595 264.2L622.995 230.2H638.395L653.195 255H653.495L668.495 230.2H682.895L661.095 264.2L683.895 300Z" fill="url(#paint2_linear_2478_129)"/>
<defs>
<linearGradient id="paint0_linear_2478_129" x1="283" y1="11.25" x2="421.75" y2="191.25" gradientUnits="userSpaceOnUse">
<stop offset="0.103063" stop-color="#FF8C34"/>
<stop offset="0.352064" stop-color="#EB4F2E"/>
<stop offset="0.535638" stop-color="#EB393C"/>
<stop offset="0.700851" stop-color="#C71625"/>
</linearGradient>
<linearGradient id="paint1_linear_2478_129" x1="114.885" y1="232.482" x2="143.916" y2="440.692" gradientUnits="userSpaceOnUse">
<stop stop-color="#B91C1C"/>
<stop offset="0.299427" stop-color="#EF4444"/>
<stop offset="0.507263" stop-color="#DC2626"/>
<stop offset="0.653778" stop-color="#F97316"/>
</linearGradient>
<linearGradient id="paint2_linear_2478_129" x1="13.1923" y1="282" x2="121.286" y2="567.029" gradientUnits="userSpaceOnUse">
<stop stop-color="#B91C1C"/>
<stop offset="0.16968" stop-color="#EF4444"/>
<stop offset="0.316562" stop-color="#DC2626"/>
<stop offset="0.677054" stop-color="#F97316"/>
</linearGradient>
</defs>
</svg>
