<svg width="110" height="56" viewBox="0 0 110 56" fill="none" xmlns="http://www.w3.org/2000/svg">
<path d="M55.001 29.334L52.334 25.334H57.667L55.001 29.334ZM54.9893 17.3535L67 6.69727L66.9873 12.0342L55.667 22.667L57.667 25.333H52.334L54.334 22.667H54.333L43 12.0029L43.0137 6.66699L54.9893 17.3535ZM61.667 8.40918L55.001 14.1338L48.334 8.40918V3.4668L55.001 8.7998L61.667 3.4668V8.40918Z" fill="url(#paint0_linear_2478_145)"/>
<path d="M3.424 54H1.312V42.832H6.352C6.864 42.832 7.32267 42.912 7.728 43.072C8.13333 43.232 8.47467 43.4667 8.752 43.776C9.04 44.0747 9.25867 44.4373 9.408 44.864C9.568 45.2907 9.648 45.7653 9.648 46.288C9.648 47.056 9.472 47.7173 9.12 48.272C8.77867 48.8267 8.26133 49.2213 7.568 49.456L9.856 54H7.504L5.424 49.696H3.424V54ZM6.144 47.92C6.54933 47.92 6.86933 47.8133 7.104 47.6C7.33867 47.376 7.456 47.0613 7.456 46.656V45.92C7.456 45.5147 7.33867 45.2053 7.104 44.992C6.86933 44.7787 6.54933 44.672 6.144 44.672H3.424V47.92H6.144ZM12.257 54V42.832H19.617V44.704H14.369V47.408H19.009V49.28H14.369V52.128H19.617V54H12.257ZM22.1707 42.832H26.2347C26.9601 42.832 27.6161 42.9493 28.2027 43.184C28.8001 43.4187 29.3067 43.7707 29.7227 44.24C30.1494 44.6987 30.4747 45.28 30.6987 45.984C30.9334 46.6773 31.0507 47.488 31.0507 48.416C31.0507 49.344 30.9334 50.16 30.6987 50.864C30.4747 51.5573 30.1494 52.1387 29.7227 52.608C29.3067 53.0667 28.8001 53.4133 28.2027 53.648C27.6161 53.8827 26.9601 54 26.2347 54H22.1707V42.832ZM26.2347 52.128C27.0241 52.128 27.6481 51.8987 28.1067 51.44C28.5761 50.9707 28.8107 50.256 28.8107 49.296V47.536C28.8107 46.576 28.5761 45.8667 28.1067 45.408C27.6481 44.9387 27.0241 44.704 26.2347 44.704H24.2827V52.128H26.2347Z" fill="url(#paint1_linear_2478_145)"/>
<path d="M37.6232 54V42.832H42.6472C43.1592 42.832 43.6179 42.9173 44.0232 43.088C44.4392 43.248 44.7912 43.4827 45.0792 43.792C45.3672 44.0907 45.5859 44.4533 45.7352 44.88C45.8846 45.3067 45.9592 45.776 45.9592 46.288C45.9592 46.8107 45.8846 47.2853 45.7352 47.712C45.5859 48.128 45.3672 48.4907 45.0792 48.8C44.7912 49.0987 44.4392 49.3333 44.0232 49.504C43.6179 49.664 43.1592 49.744 42.6472 49.744H39.7352V54H37.6232ZM39.7352 47.92H42.4552C42.8606 47.92 43.1806 47.8133 43.4152 47.6C43.6499 47.376 43.7672 47.0613 43.7672 46.656V45.92C43.7672 45.5147 43.6499 45.2053 43.4152 44.992C43.1806 44.7787 42.8606 44.672 42.4552 44.672H39.7352V47.92ZM54.9612 49.28H50.3052V54H48.1932V42.832H50.3052V47.408H54.9612V42.832H57.0732V54H54.9612V49.28ZM64.3972 54.192C63.6612 54.192 62.9946 54.0693 62.3972 53.824C61.7999 53.5787 61.2879 53.2107 60.8612 52.72C60.4452 52.2293 60.1199 51.6267 59.8852 50.912C59.6506 50.1973 59.5332 49.3653 59.5332 48.416C59.5332 47.4773 59.6506 46.6507 59.8852 45.936C60.1199 45.2107 60.4452 44.6027 60.8612 44.112C61.2879 43.6213 61.7999 43.2533 62.3972 43.008C62.9946 42.7627 63.6612 42.64 64.3972 42.64C65.1332 42.64 65.7999 42.7627 66.3972 43.008C66.9946 43.2533 67.5066 43.6213 67.9332 44.112C68.3599 44.6027 68.6852 45.2107 68.9092 45.936C69.1439 46.6507 69.2612 47.4773 69.2612 48.416C69.2612 49.3653 69.1439 50.1973 68.9092 50.912C68.6852 51.6267 68.3599 52.2293 67.9332 52.72C67.5066 53.2107 66.9946 53.5787 66.3972 53.824C65.7999 54.0693 65.1332 54.192 64.3972 54.192ZM64.3972 52.32C65.1972 52.32 65.8319 52.0533 66.3012 51.52C66.7812 50.9867 67.0212 50.24 67.0212 49.28V47.552C67.0212 46.592 66.7812 45.8453 66.3012 45.312C65.8319 44.7787 65.1972 44.512 64.3972 44.512C63.5972 44.512 62.9572 44.7787 62.4772 45.312C62.0079 45.8453 61.7732 46.592 61.7732 47.552V49.28C61.7732 50.24 62.0079 50.9867 62.4772 51.52C62.9572 52.0533 63.5972 52.32 64.3972 52.32ZM71.7239 54V42.832H79.0839V44.704H73.8359V47.408H78.4759V49.28H73.8359V52.128H79.0839V54H71.7239ZM84.8376 48.272L83.6856 45.952H83.6376V54H81.6376V42.832H83.9576L87.3176 48.56L88.4696 50.88H88.5176V42.832H90.5176V54H88.1976L84.8376 48.272ZM92.9936 54V52.304H94.4656V44.528H92.9936V42.832H98.0656V44.528H96.5776V52.304H98.0656V54H92.9936ZM109.423 54H106.959L104.399 49.712H104.351L101.823 54H99.5192L103.135 48.272L99.6792 42.832H102.143L104.511 46.8H104.559L106.959 42.832H109.263L105.775 48.272L109.423 54Z" fill="url(#paint2_linear_2478_145)"/>
<defs>
<linearGradient id="paint0_linear_2478_145" x1="44.3333" y1="2.0001" x2="69.0006" y2="34.0003" gradientUnits="userSpaceOnUse">
<stop offset="0.103063" stop-color="#FF8C34"/>
<stop offset="0.352064" stop-color="#EB4F2E"/>
<stop offset="0.535638" stop-color="#EB393C"/>
<stop offset="0.700851" stop-color="#C71625"/>
</linearGradient>
<linearGradient id="paint1_linear_2478_145" x1="18.4217" y1="43.2771" x2="23.057" y2="76.5934" gradientUnits="userSpaceOnUse">
<stop stop-color="#B91C1C"/>
<stop offset="0.299427" stop-color="#EF4444"/>
<stop offset="0.507263" stop-color="#DC2626"/>
<stop offset="0.653778" stop-color="#F97316"/>
</linearGradient>
<linearGradient id="paint2_linear_2478_145" x1="2.11538" y1="51.2" x2="19.3821" y2="96.8296" gradientUnits="userSpaceOnUse">
<stop stop-color="#B91C1C"/>
<stop offset="0.16968" stop-color="#EF4444"/>
<stop offset="0.316562" stop-color="#DC2626"/>
<stop offset="0.677054" stop-color="#F97316"/>
</linearGradient>
</defs>
</svg>
