<svg width="165" height="84" viewBox="0 0 165 84" fill="none" xmlns="http://www.w3.org/2000/svg">
<path d="M82.5 44L78.5 38L81.5 34L64.5 18.0049L64.5195 10L82.4834 26.0303L100.5 10.0469L100.48 18.0518L83.5 34L86.5 38L82.5 44ZM92.5 12.6143L82.5 21.2002L72.5 12.6143V5.2002L82.5 13.2002L92.5 5.2002V12.6143Z" fill="url(#paint0_linear_2478_137)"/>
<path d="M5.136 81H1.968V64.248H9.528C10.296 64.248 10.984 64.368 11.592 64.608C12.2 64.848 12.712 65.2 13.128 65.664C13.56 66.112 13.888 66.656 14.112 67.296C14.352 67.936 14.472 68.648 14.472 69.432C14.472 70.584 14.208 71.576 13.68 72.408C13.168 73.24 12.392 73.832 11.352 74.184L14.784 81H11.256L8.136 74.544H5.136V81ZM9.216 71.88C9.824 71.88 10.304 71.72 10.656 71.4C11.008 71.064 11.184 70.592 11.184 69.984V68.88C11.184 68.272 11.008 67.808 10.656 67.488C10.304 67.168 9.824 67.008 9.216 67.008H5.136V71.88H9.216ZM18.3855 81V64.248H29.4255V67.056H21.5535V71.112H28.5135V73.92H21.5535V78.192H29.4255V81H18.3855ZM33.2561 64.248H39.3521C40.4401 64.248 41.4241 64.424 42.3041 64.776C43.2001 65.128 43.9601 65.656 44.5841 66.36C45.2241 67.048 45.7121 67.92 46.0481 68.976C46.4001 70.016 46.5761 71.232 46.5761 72.624C46.5761 74.016 46.4001 75.24 46.0481 76.296C45.7121 77.336 45.2241 78.208 44.5841 78.912C43.9601 79.6 43.2001 80.12 42.3041 80.472C41.4241 80.824 40.4401 81 39.3521 81H33.2561V64.248ZM39.3521 78.192C40.5361 78.192 41.4721 77.848 42.1601 77.16C42.8641 76.456 43.2161 75.384 43.2161 73.944V71.304C43.2161 69.864 42.8641 68.8 42.1601 68.112C41.4721 67.408 40.5361 67.056 39.3521 67.056H36.4241V78.192H39.3521Z" fill="url(#paint1_linear_2478_137)"/>
<path d="M56.4349 81V64.248H63.9709C64.7389 64.248 65.4269 64.376 66.0349 64.632C66.6589 64.872 67.1869 65.224 67.6189 65.688C68.0509 66.136 68.3789 66.68 68.6029 67.32C68.8269 67.96 68.9389 68.664 68.9389 69.432C68.9389 70.216 68.8269 70.928 68.6029 71.568C68.3789 72.192 68.0509 72.736 67.6189 73.2C67.1869 73.648 66.6589 74 66.0349 74.256C65.4269 74.496 64.7389 74.616 63.9709 74.616H59.6029V81H56.4349ZM59.6029 71.88H63.6829C64.2909 71.88 64.7709 71.72 65.1229 71.4C65.4749 71.064 65.6509 70.592 65.6509 69.984V68.88C65.6509 68.272 65.4749 67.808 65.1229 67.488C64.7709 67.168 64.2909 67.008 63.6829 67.008H59.6029V71.88ZM82.4419 73.92H75.4579V81H72.2899V64.248H75.4579V71.112H82.4419V64.248H85.6099V81H82.4419V73.92ZM96.5959 81.288C95.4919 81.288 94.4919 81.104 93.5959 80.736C92.6999 80.368 91.9319 79.816 91.2919 79.08C90.6679 78.344 90.1799 77.44 89.8279 76.368C89.4759 75.296 89.2999 74.048 89.2999 72.624C89.2999 71.216 89.4759 69.976 89.8279 68.904C90.1799 67.816 90.6679 66.904 91.2919 66.168C91.9319 65.432 92.6999 64.88 93.5959 64.512C94.4919 64.144 95.4919 63.96 96.5959 63.96C97.6999 63.96 98.6999 64.144 99.5959 64.512C100.492 64.88 101.26 65.432 101.9 66.168C102.54 66.904 103.028 67.816 103.364 68.904C103.716 69.976 103.892 71.216 103.892 72.624C103.892 74.048 103.716 75.296 103.364 76.368C103.028 77.44 102.54 78.344 101.9 79.08C101.26 79.816 100.492 80.368 99.5959 80.736C98.6999 81.104 97.6999 81.288 96.5959 81.288ZM96.5959 78.48C97.7959 78.48 98.7479 78.08 99.4519 77.28C100.172 76.48 100.532 75.36 100.532 73.92V71.328C100.532 69.888 100.172 68.768 99.4519 67.968C98.7479 67.168 97.7959 66.768 96.5959 66.768C95.3959 66.768 94.4359 67.168 93.7159 67.968C93.0119 68.768 92.6599 69.888 92.6599 71.328V73.92C92.6599 75.36 93.0119 76.48 93.7159 77.28C94.4359 78.08 95.3959 78.48 96.5959 78.48ZM107.586 81V64.248H118.626V67.056H110.754V71.112H117.714V73.92H110.754V78.192H118.626V81H107.586ZM127.256 72.408L125.528 68.928H125.456V81H122.456V64.248H125.936L130.976 72.84L132.704 76.32H132.776V64.248H135.776V81H132.296L127.256 72.408ZM139.49 81V78.456H141.698V66.792H139.49V64.248H147.098V66.792H144.866V78.456H147.098V81H139.49ZM164.135 81H160.439L156.599 74.568H156.527L152.735 81H149.279L154.703 72.408L149.519 64.248H153.215L156.767 70.2H156.839L160.439 64.248H163.895L158.663 72.408L164.135 81Z" fill="url(#paint2_linear_2478_137)"/>
<defs>
<linearGradient id="paint0_linear_2478_137" x1="66.5" y1="3.00021" x2="103.5" y2="51.0001" gradientUnits="userSpaceOnUse">
<stop offset="0.103063" stop-color="#FF8C34"/>
<stop offset="0.352064" stop-color="#EB4F2E"/>
<stop offset="0.535638" stop-color="#EB393C"/>
<stop offset="0.700851" stop-color="#C71625"/>
</linearGradient>
<linearGradient id="paint1_linear_2478_137" x1="27.6326" y1="64.9157" x2="34.5856" y2="114.89" gradientUnits="userSpaceOnUse">
<stop stop-color="#B91C1C"/>
<stop offset="0.299427" stop-color="#EF4444"/>
<stop offset="0.507263" stop-color="#DC2626"/>
<stop offset="0.653778" stop-color="#F97316"/>
</linearGradient>
<linearGradient id="paint2_linear_2478_137" x1="3.17307" y1="76.8" x2="29.0731" y2="145.244" gradientUnits="userSpaceOnUse">
<stop stop-color="#B91C1C"/>
<stop offset="0.16968" stop-color="#EF4444"/>
<stop offset="0.316562" stop-color="#DC2626"/>
<stop offset="0.677054" stop-color="#F97316"/>
</linearGradient>
</defs>
</svg>
